<svg xmlns="http://www.w3.org/2000/svg" xmlns:svg="http://www.w3.org/2000/svg" id="svg848" width="20" height="20" version="1.1" viewBox="0 0 5.292 5.292"><metadata id="metadata845"/><g id="layer1" transform="translate(0,-291.70831)"><rect style="opacity:1;fill:#4d4d4d;fill-opacity:1;stroke:none;stroke-width:9.47878742;stroke-miterlimit:4;stroke-dasharray:none;stroke-opacity:1" id="rect1395" width="4.233" height=".265" x="-4.762" y="292.237" transform="scale(-1,1)"/><rect id="rect4528" width="2.381" height=".265" x="-2.91" y="296.206" style="opacity:1;fill:#4d4d4d;fill-opacity:1;stroke:none;stroke-width:7.10908985;stroke-miterlimit:4;stroke-dasharray:none;stroke-opacity:1" transform="scale(-1,1)"/><rect id="rect4530" width="2.117" height=".265" x="292.24" y="4.498" style="opacity:1;fill:#4d4d4d;fill-opacity:1;stroke:none;stroke-width:6.70251465;stroke-miterlimit:4;stroke-dasharray:none;stroke-opacity:1" transform="matrix(0,1,1,0,0,0)"/><rect transform="matrix(0,1,1,0,0,0)" style="opacity:1;fill:#4d4d4d;fill-opacity:1;stroke:none;stroke-width:9.47878647;stroke-miterlimit:4;stroke-dasharray:none;stroke-opacity:1" id="rect4532" width="4.233" height=".265" x="292.237" y=".529"/><rect id="rect4548" width="4.233" height=".529" x="292.237" y="2.381" style="opacity:1;fill:#4d4d4d;fill-opacity:1;stroke:none;stroke-width:13.40502834;stroke-miterlimit:4;stroke-dasharray:none;stroke-opacity:1" transform="matrix(0,1,1,0,0,0)"/><g id="g2649" transform="translate(-2.4143228,0.17716876)"><path id="path4554" d="m 6.5496418,294.45332 c -0.3725156,0 -0.677478,0.30548 -0.6774778,0.67799 l 1.64e-5,0.20877 h 0.2656409 v -0.20877 c 0,-0.22969 0.1821283,-0.41238 0.4118197,-0.41238 0.2296917,0 0.4144748,0.18271 0.4144748,0.4124 v 0.20728 l 0.263525,0.003 v -0.21025 c 0,-0.37251 -0.3054839,-0.67799 -0.6779998,-0.67799 z" style="color:#000;font-style:normal;font-variant:normal;font-weight:400;font-stretch:normal;font-size:medium;line-height:normal;font-family:sans-serif;font-variant-ligatures:normal;font-variant-position:normal;font-variant-caps:normal;font-variant-numeric:normal;font-variant-alternates:normal;font-feature-settings:normal;text-indent:0;text-align:start;text-decoration:none;text-decoration-line:none;text-decoration-style:solid;text-decoration-color:#000;letter-spacing:normal;word-spacing:normal;text-transform:none;writing-mode:lr-tb;direction:ltr;text-orientation:mixed;dominant-baseline:auto;baseline-shift:baseline;text-anchor:start;white-space:normal;shape-padding:0;clip-rule:nonzero;display:inline;overflow:visible;visibility:visible;opacity:1;isolation:auto;mix-blend-mode:normal;color-interpolation:sRGB;color-interpolation-filters:linearRGB;solid-color:#000;solid-opacity:1;vector-effect:none;fill:#4d4d4d;fill-opacity:1;fill-rule:nonzero;stroke:none;stroke-width:.26427403;stroke-linecap:butt;stroke-linejoin:miter;stroke-miterlimit:4;stroke-dasharray:none;stroke-dashoffset:0;stroke-opacity:1;color-rendering:auto;image-rendering:auto;shape-rendering:auto;text-rendering:auto;enable-background:accumulate"/><rect id="rect4569" width="1.784" height="1.217" x="5.658" y="295.342" style="opacity:1;fill:#4d4d4d;fill-opacity:1;stroke:none;stroke-width:.26458332;stroke-miterlimit:4;stroke-dasharray:none;stroke-opacity:1"/></g></g></svg>