<svg xmlns="http://www.w3.org/2000/svg" xmlns:svg="http://www.w3.org/2000/svg" id="svg848" width="20" height="20" version="1.1" viewBox="0 0 5.292 5.292"><metadata id="metadata845"/><g id="layer1" transform="translate(0,-291.70831)"><path style="fill:#4d4d4d;fill-opacity:1;stroke:none;stroke-width:.87500036px;stroke-linecap:butt;stroke-linejoin:miter;stroke-opacity:1" id="path2614" d="M 3 3 L 3 17 L 12 17 L 12 12 L 17 12 L 17 3 L 3 3 z M 6 7 L 14 7 L 14 8 L 6 8 L 6 7 z M 6 9 L 14 9 L 14 10 L 6 10 L 6 9 z M 6 11 L 10 11 L 10 12 L 6 12 L 6 11 z" transform="matrix(0.26458333,0,0,0.26458333,0,291.70831)"/><path style="fill:#4d4d4d;fill-opacity:1;stroke:none;stroke-width:.26458332px;stroke-linecap:butt;stroke-linejoin:miter;stroke-opacity:1" id="path2616" d="m 3.4395833,295.14789 0,1.06205 1.0546443,-1.05759 z"/></g></svg>